<svg width="122" height="128" fill="none" xmlns="http://www.w3.org/2000/svg"><path fill-rule="evenodd" clip-rule="evenodd" d="M61.629 64.415c16.137 0 29.216-13.078 29.216-29.208C90.845 19.078 77.765 6 61.63 6 45.49 6 32.412 19.078 32.412 35.207c0 16.13 13.08 29.208 29.217 29.208Zm0 6c19.45 0 35.216-15.763 35.216-35.208C96.845 15.763 81.078 0 61.63 0 42.18 0 26.413 15.763 26.413 35.207c0 19.445 15.767 35.208 35.217 35.208Zm54.044 51.582a55.215 55.215 0 0 0-3.861-15.097 55.133 55.133 0 0 0-11.925-17.883 54.991 54.991 0 0 0-17.802-11.929c-.097.01-.378.06-.895.296-1.165.531-2.58 1.54-4.569 3.113-.285.225-.584.464-.895.712-1.622 1.296-3.578 2.857-5.535 4.093-2.333 1.475-5.5 3.051-9.191 3.051-3.691 0-6.858-1.576-9.191-3.05-1.957-1.237-3.912-2.798-5.534-4.093-.312-.25-.611-.488-.896-.713-1.99-1.573-3.404-2.582-4.569-3.113-.517-.236-.798-.286-.895-.296a54.993 54.993 0 0 0-17.802 11.929A55.125 55.125 0 0 0 10.188 106.9a55.219 55.219 0 0 0-3.861 15.097h109.346Zm6.032 0a61.144 61.144 0 0 0-17.571-37.219 61 61 0 0 0-19.79-13.249c-4.014-1.666-8.185 1.66-12.44 5.052-3.589 2.862-7.238 5.772-10.904 5.772-3.666 0-7.315-2.91-10.905-5.772-4.254-3.392-8.425-6.718-12.439-5.052a60.992 60.992 0 0 0-19.79 13.25 61.13 61.13 0 0 0-13.223 19.828A61.223 61.223 0 0 0 0 127.997h122c0-2.007-.099-4.009-.295-6ZM57.503 92a2 2 0 0 1 2-2h4.69a2 2 0 0 1 2 2v3.875c0 .052-.002.105-.006.157.559.27 1.09.587 1.585.947.051-.035.104-.068.158-.1l3.425-1.954a2.024 2.024 0 0 1 2.746.736l2.328 3.985c.557.954.23 2.171-.729 2.718l-3.424 1.955a1.984 1.984 0 0 1-.315.145 10.223 10.223 0 0 1-.025 1.764c.117.04.23.091.341.154l3.425 1.955a1.975 1.975 0 0 1 .728 2.718l-2.328 3.986a2.024 2.024 0 0 1-2.745.735l-3.425-1.954a1.996 1.996 0 0 1-.352-.255c-.458.317-.943.598-1.45.839.041.161.064.33.064.504v3.875a2 2 0 0 1-2 2h-4.69a2 2 0 0 1-2-2v-3.875c0-.121.01-.239.03-.355a10.325 10.325 0 0 1-1.567-.845 2.174 2.174 0 0 1-.183.118l-3.425 1.954a2.024 2.024 0 0 1-2.745-.736l-2.328-3.985a1.975 1.975 0 0 1 .728-2.718l3.403-1.943a10.188 10.188 0 0 1-.03-2.102l-3.373-1.925a1.977 1.977 0 0 1-.729-2.719l2.328-3.985a2.024 2.024 0 0 1 2.746-.736l3.374 1.925a10.334 10.334 0 0 1 1.77-.99V92Zm9.73 13.392a5.373 5.373 0 0 1-5.376 5.37 5.373 5.373 0 0 1-5.375-5.37 5.372 5.372 0 0 1 5.375-5.369 5.372 5.372 0 0 1 5.376 5.369Z" fill="#fff"/></svg>