<svg width="135" height="135" fill="none" xmlns="http://www.w3.org/2000/svg"><g filter="url(#a)"><g clip-path="url(#b)" fill="#fff"><path d="M67.5 7.938a38.805 38.805 0 0 0-38.805 38.805 37.677 37.677 0 0 0 3.527 16.334 57.719 57.719 0 0 0 3.951 6.28 59.973 59.973 0 0 1 7.056 12.24A57.12 57.12 0 0 1 45.31 95.71h7.056a64.098 64.098 0 0 0-2.505-16.546 65.123 65.123 0 0 0-7.831-13.829 55.71 55.71 0 0 1-3.528-5.432 30.48 30.48 0 0 1-2.752-13.23 31.873 31.873 0 1 1 63.747 0 30.48 30.48 0 0 1-3.034 13.3 55.705 55.705 0 0 1-3.527 5.433 65.118 65.118 0 0 0-7.797 13.758 64.1 64.1 0 0 0-2.505 16.616h7.056a57.08 57.08 0 0 1 2.081-14.111 59.976 59.976 0 0 1 7.056-12.241 57.463 57.463 0 0 0 3.951-6.42 37.68 37.68 0 0 0 3.528-16.334A38.809 38.809 0 0 0 67.5 7.937Z"/><path d="M69.722 54.715a2.822 2.822 0 0 0-3.986 0L55.152 65.298l10.09 11.042v19.544h5.785V74.082l-7.902-8.643 6.668-6.667a2.824 2.824 0 0 0-.07-4.057Zm18.451 48.121H46.722a2.82 2.82 0 0 0-2.823 2.822 2.822 2.822 0 0 0 2.823 2.822h41.451a2.823 2.823 0 1 0 0-5.644Zm-6.563 10.582H53.39a2.82 2.82 0 0 0-2.823 2.822 2.822 2.822 0 0 0 2.823 2.822h28.22a2.823 2.823 0 1 0 0-5.644ZM65.1 38.416l-9.63 9.63a2.822 2.822 0 0 0 3.986 3.987l9.631-9.701a2.823 2.823 0 1 0-3.986-3.987v.07Z"/></g></g><defs><clipPath id="b"><path fill="#fff" transform="translate(4)" d="M0 0h127v127H0z"/></clipPath><filter id="a" x="0" y="0" width="135" height="135" filterUnits="userSpaceOnUse" color-interpolation-filters="sRGB"><feFlood flood-opacity="0" result="BackgroundImageFix"/><feColorMatrix in="SourceAlpha" values="0 0 0 0 0 0 0 0 0 0 0 0 0 0 0 0 0 0 127 0" result="hardAlpha"/><feOffset dy="4"/><feGaussianBlur stdDeviation="2"/><feComposite in2="hardAlpha" operator="out"/><feColorMatrix values="0 0 0 0 0 0 0 0 0 0 0 0 0 0 0 0 0 0 0.25 0"/><feBlend in2="BackgroundImageFix" result="effect1_dropShadow_3238_5487"/><feBlend in="SourceGraphic" in2="effect1_dropShadow_3238_5487" result="shape"/></filter></defs></svg>