<svg width="122" height="128" fill="none" xmlns="http://www.w3.org/2000/svg"><path fill-rule="evenodd" clip-rule="evenodd" d="M61.629 64.415c16.137 0 29.216-13.078 29.216-29.208C90.845 19.078 77.766 6 61.63 6S32.412 19.078 32.412 35.207c0 16.13 13.08 29.208 29.217 29.208Zm0 6c19.45 0 35.216-15.763 35.216-35.208C96.845 15.763 81.078 0 61.63 0 42.18 0 26.413 15.763 26.413 35.207c0 19.445 15.767 35.208 35.217 35.208Zm54.044 51.582a55.215 55.215 0 0 0-3.861-15.097 55.133 55.133 0 0 0-11.925-17.883 54.991 54.991 0 0 0-17.802-11.929c-.097.01-.378.06-.895.296-1.165.531-2.58 1.54-4.569 3.113-.285.225-.584.464-.895.712-1.622 1.296-3.578 2.857-5.535 4.093-2.333 1.475-5.5 3.051-9.191 3.051-3.691 0-6.858-1.576-9.191-3.05-1.957-1.237-3.912-2.798-5.534-4.093-.312-.25-.611-.488-.896-.713-1.99-1.573-3.404-2.582-4.569-3.113-.517-.236-.798-.286-.895-.296a54.993 54.993 0 0 0-17.802 11.929A55.125 55.125 0 0 0 10.188 106.9a55.219 55.219 0 0 0-3.861 15.097h109.346Zm6.032 0a61.144 61.144 0 0 0-17.571-37.219 61 61 0 0 0-19.79-13.249c-4.014-1.666-8.185 1.66-12.44 5.052-3.589 2.862-7.238 5.772-10.904 5.772-3.666 0-7.315-2.91-10.905-5.772-4.254-3.392-8.425-6.718-12.439-5.052a60.992 60.992 0 0 0-19.79 13.25 61.13 61.13 0 0 0-13.223 19.828A61.223 61.223 0 0 0 0 127.997h122c0-2.007-.099-4.009-.295-6ZM50.079 97.92h-3.125V113h3.125v-6.248h6.54V113h3.145V97.92h-3.145v6.249h-6.54V97.92Zm18.14 0h-5.914V113h3.124v-5.353h2.385L70.699 113h3.457l-3.208-5.863c.861-.368 1.52-.92 1.98-1.656.457-.736.686-1.618.686-2.645 0-.993-.211-1.857-.635-2.593-.423-.743-1.041-1.316-1.853-1.718-.806-.403-1.774-.605-2.906-.605Zm1.48 3.166c.458.396.687.979.687 1.75 0 1.513-.916 2.27-2.75 2.27H65.43v-4.624h2.208c.916 0 1.603.202 2.062.604Z" fill="#fff"/></svg>