<svg width="128" height="114" fill="none" xmlns="http://www.w3.org/2000/svg"><path fill-rule="evenodd" clip-rule="evenodd" d="M14 21.55a6 6 0 0 0-6 6v54.192a6 6 0 0 0 6 6h77.932a6 6 0 0 0 6-6V45.991h8v35.751c0 7.732-6.268 14-14 14H56.64v10.839h17.099a3.71 3.71 0 0 1 0 7.419H32.192a3.71 3.71 0 0 1 0-7.419h17.103V95.742H14c-7.732 0-14-6.268-14-14V27.551c0-7.732 6.268-14 14-14h70.794v8H14Z" fill="#fff"/><path fill-rule="evenodd" clip-rule="evenodd" d="m124.857 7.392 2.508.594c.455 1.43.668 2.93.631 4.433a12.503 12.503 0 0 1-3.573 8.782 12.005 12.005 0 0 1-8.61 3.644 11.86 11.86 0 0 1-4.643-.941c-5.42 5.64-14.958 15.27-19.937 19.957a4.231 4.231 0 0 1-2.747 1.086 4.8 4.8 0 0 1-1.178-.204 5.5 5.5 0 0 1-.551-.207 4.796 4.796 0 0 1-1.406-1.054 4.514 4.514 0 0 1-1.493-3.11 4.55 4.55 0 0 1 .914-3.101 1110.43 1110.43 0 0 1 12.532-12.782c2.428-2.433 4.869-4.859 7.321-7.273a12.667 12.667 0 0 1 0-9.539c.33-.789.742-1.535 1.229-2.23.463-.665.994-1.282 1.584-1.84a12.289 12.289 0 0 1 3.815-2.703A11.754 11.754 0 0 1 115.938 0c1.474.02 2.936.266 4.333.735l.579 2.546-6.613 6.942 3.84 3.91 6.78-6.742Zm-2.489 11.613a9.377 9.377 0 0 0 2.676-6.586v-.832l-5.94 5.844h-2.124l-6.093-6.07V9.122L116.73 3.1h-.817a8.85 8.85 0 0 0-3.447.687 8.81 8.81 0 0 0-3.058 2.032 8.832 8.832 0 0 0-1.97 3.097 9.628 9.628 0 0 0 2.043 10.09 9.202 9.202 0 0 0 12.887 0Zm-27.17-.715h-4.924l-1.363-.691L83 8.212l.212-1.926 2.673-2.73 1.9-.215 9.198 6.055.708 1.406-.183 5.305v.14l2.139 2.18-2.181 2.168-2.268-2.305Zm-.52-6.785-7.443-4.902-.942.918 4.799 7.597h3.46l.126-3.613Zm27.564 25.57-9.989-10.246-2.167 2.164 10.062 10.266c.141.137.251.305.323.492.049.13.082.262.099.403l.013.187a1.71 1.71 0 0 1-.116.594 1.431 1.431 0 0 1-.321.492 1.275 1.275 0 0 1-.493.336c-.37.152-.784.152-1.154 0a1.266 1.266 0 0 1-.492-.336L107.935 31.15l-2.185 2.183 10.105 10.305a4.278 4.278 0 0 0 1.406 1.012 4.512 4.512 0 0 0 4.981-1.012 4.76 4.76 0 0 0 0-6.563Z" fill="#fff"/></svg>