<svg width="128" height="114" fill="none" xmlns="http://www.w3.org/2000/svg"><path fill-rule="evenodd" clip-rule="evenodd" d="M116.316 40.176H87.729V11.647l3.78 3.772-2.656 2.65a1.5 1.5 0 0 0 2.119 2.124l2.66-2.655 3.757 3.75-2.4 2.395a1.5 1.5 0 1 0 2.118 2.123l2.405-2.4 4.014 4.006-2.4 2.396a1.5 1.5 0 0 0 2.119 2.123l2.405-2.4 4.01 4.003-2.398 2.394a1.5 1.5 0 1 0 2.119 2.123l2.403-2.398 4.532 4.523ZM81.729 11.552V2.004c0-1.78 2.153-2.674 3.413-1.416l1.419 1.416 1.04 1.037.129.13 37.08 37.005.131.132 1.046 1.043 1.412 1.41c1.262 1.26.37 3.415-1.412 3.415h-17.826V81.28c0 7.732-6.268 14-14 14H57.838v11.146h17.496a3.786 3.786 0 1 1 0 7.573H32.826a3.786 3.786 0 1 1 0-7.573h17.5V95.28H14c-7.732 0-14-6.268-14-14V25.552c0-7.732 6.268-14 14-14h67.73Zm0 8H14a6 6 0 0 0-6 6V81.28a6 6 0 0 0 6 6h80.161a6 6 0 0 0 6-6V46.176H83.73a2 2 0 0 1-2-2V19.552Z" fill="#fff"/></svg>