<svg width="128" height="114" fill="none" xmlns="http://www.w3.org/2000/svg"><path fill-rule="evenodd" clip-rule="evenodd" d="M94.25 4a4 4 0 0 1 4-4h7.356a4 4 0 0 1 4 4v5.797c0 .256-.024.506-.07.748a18.351 18.351 0 0 1 2.915 1.728c.194-.168.408-.319.64-.45l5.228-2.959a4.085 4.085 0 0 1 5.512 1.477l3.618 6.142a3.917 3.917 0 0 1-1.451 5.416l-5.228 2.959a4.043 4.043 0 0 1-.977.395 17.877 17.877 0 0 1-.046 3.279c.351.086.695.22 1.024.407l5.228 2.958a3.916 3.916 0 0 1 1.451 5.417l-3.618 6.142a4.085 4.085 0 0 1-5.511 1.476l-5.229-2.958a3.969 3.969 0 0 1-.941-.739 18.332 18.332 0 0 1-2.767 1.586c.144.412.222.855.222 1.316v5.797a4 4 0 0 1-3.669 3.987v28.012c0 7.732-6.268 14-14 14H56.642v10.708h17.133a3.678 3.678 0 0 1 0 7.355H32.161a3.677 3.677 0 1 1 0-7.355h17.136V95.933H14c-7.732 0-14-6.268-14-14V28.387c0-7.732 6.268-14 14-14h63.686l2.376-4.034a4.085 4.085 0 0 1 5.512-1.477l5.228 2.959c.108.06.211.126.31.194a18.314 18.314 0 0 1 3.166-1.752 4.057 4.057 0 0 1-.029-.48V4ZM78.735 22.387H14a6 6 0 0 0-6 6v53.546a6 6 0 0 0 6 6h77.937a6 6 0 0 0 6-6v-28.01a4 4 0 0 1-3.688-3.989v-5.797c0-.37.05-.73.145-1.07a18.324 18.324 0 0 1-2.925-1.562 4 4 0 0 1-.667.473l-5.228 2.958a4.085 4.085 0 0 1-5.512-1.476l-3.618-6.142a3.917 3.917 0 0 1 1.451-5.416l5.229-2.959c.123-.07.248-.132.375-.187a17.706 17.706 0 0 1-.053-3.722 4.073 4.073 0 0 1-.322-.164l-4.388-2.483Zm32.709 4.583c0 5.195-4.252 9.407-9.498 9.407-5.246 0-9.498-4.212-9.498-9.407 0-5.196 4.252-9.407 9.498-9.407 5.246 0 9.498 4.211 9.498 9.407Z" fill="#fff"/></svg>