<svg width="120" height="110" fill="none" xmlns="http://www.w3.org/2000/svg"><path fill-rule="evenodd" clip-rule="evenodd" d="m90.574 35.397-6.048-6.048 22.177-22.177a4 4 0 0 1 5.657 0l.391.391a4 4 0 0 1 0 5.657L90.574 35.397Zm-11.737-3.252-1.05 1.074c-.966.988-2.522 1.51-4.366 1.64-1.81.127-3.589-.15-4.62-.431l-1.786-.487-.596 1.787-7.021 21.04L59 57.96l.871.89 1.937 1.98.885.905 1.179-.43 20.336-7.426 1.746-.637-.51-1.822c-.263-.944-.52-2.625-.367-4.39.154-1.768.698-3.388 1.802-4.516l1.15-1.177 2.545 2.545 4.243-4.242 5.344-5.345v42.842a6 6 0 0 1-6 6H14a6 6 0 0 1-6-6V21.409a6 6 0 0 1 6-6h75.98l-9.697 9.697-4.243 4.243 2.797 2.796ZM97.981 7.41H14c-7.732 0-14 6.268-14 14v55.728c0 7.732 6.268 14 14 14h36.326v11.146h-17.5a3.786 3.786 0 1 0 0 7.573h42.508a3.787 3.787 0 0 0 0-7.573H57.838V91.137h36.323c7.732 0 14-6.268 14-14V26.295l8.833-8.832c3.905-3.906 3.905-10.237 0-14.143l-.392-.391c-3.905-3.905-10.237-3.905-14.142 0l-4.48 4.48Zm-27.86 41.512-5.96 6.093 5.44-16.302c1.202.183 2.628.283 4.09.18 1.704-.119 3.64-.528 5.32-1.563l3.825 3.911c-1.082 1.731-1.547 3.685-1.7 5.431a17.676 17.676 0 0 0 .12 3.99l-15.62 5.704 5.825-5.954a3.033 3.033 0 0 0 3.66-.537 3.201 3.201 0 0 0 0-4.456 3.035 3.035 0 0 0-4.36 0 3.204 3.204 0 0 0-.64 3.503Zm2.039-2.073a1.087 1.087 0 0 1 1.562 0c.431.44.431 1.155 0 1.596a1.087 1.087 0 0 1-1.562 0 1.147 1.147 0 0 1 0-1.596Z" fill="#fff"/></svg>